<svg version="1.1" viewBox="0.0 0.0 960.0 720.0" fill="none" stroke="none" stroke-linecap="square" stroke-miterlimit="10" xmlns:xlink="http://www.w3.org/1999/xlink" xmlns="http://www.w3.org/2000/svg"><clipPath id="p.0"><path d="m0 0l960.0 0l0 720.0l-960.0 0l0 -720.0z" clip-rule="nonzero"/></clipPath><g clip-path="url(#p.0)"><path fill="#000000" fill-opacity="0.0" d="m0 0l960.0 0l0 720.0l-960.0 0z" fill-rule="evenodd"/><path fill="#ff0000" d="m718.5824 598.5827l0 0c-136.6535 136.65356 -354.25018 140.61597 -486.01575 8.850403c-131.76556 -131.76556 -127.803116 -349.3622 8.850388 -486.01575c136.6535 -136.6535 354.25015 -140.61597 486.01578 -8.850388l-247.4331 247.43307z" fill-rule="evenodd"/><path stroke="#ff0000" stroke-width="1.0" stroke-linejoin="round" stroke-linecap="butt" d="m718.5824 598.5827l0 0c-136.6535 136.65356 -354.25018 140.61597 -486.01575 8.850403c-131.76556 -131.76556 -127.803116 -349.3622 8.850388 -486.01575c136.6535 -136.6535 354.25015 -140.61597 486.01578 -8.850388l-247.4331 247.43307z" fill-rule="evenodd"/></g></svg>